HIERARCHY
ROOT reference
{
  OFFSET 0 0 0
  CHANNELS 6 Xposition Yposition Zposition Zrotation Xrotation Yrotation
  JOINT Hips
  {
    OFFSET -5.58457 84.7316 98.8742
    CHANNELS 6 Xposition Yposition Zposition Zrotation Xrotation Yrotation
    JOINT Spine
    {
      OFFSET 0 7.59534 0
      CHANNELS 6 Xposition Yposition Zposition Zrotation Xrotation Yrotation
      JOINT Spine1
      {
        OFFSET 0 23.5015 0
        CHANNELS 6 Xposition Yposition Zposition Zrotation Xrotation Yrotation
        JOINT Neck
        {
          OFFSET 0 23.405 2.12773
          CHANNELS 6 Xposition Yposition Zposition Zrotation Xrotation Yrotation
          JOINT Head
          {
            OFFSET 0 12.9677 -1.85252
            CHANNELS 6 Xposition Yposition Zposition Zrotation Xrotation Yrotation
            End Site
            {
              OFFSET 0 23.1565 0
            }
          }
        }
        JOINT LeftShoulder
        {
          OFFSET 3.62206 22.4732 -0.132728
          CHANNELS 6 Xposition Yposition Zposition Zrotation Xrotation Yrotation
          JOINT LeftArm
          {
            OFFSET 8.17784 0 0
            CHANNELS 6 Xposition Yposition Zposition Zrotation Xrotation Yrotation
            JOINT LeftForeArm
            {
              OFFSET 30.104 0 0
              CHANNELS 6 Xposition Yposition Zposition Zrotation Xrotation Yrotation
              JOINT LeftHand
              {
                OFFSET 24.4664 0 0
                CHANNELS 6 Xposition Yposition Zposition Zrotation Xrotation Yrotation
                End Site
                {
                  OFFSET 13.8939 0 0
                }
              }
            }
          }
        }
        JOINT RightShoulder
        {
          OFFSET -3.6336 22.4732 -0.132728
          CHANNELS 6 Xposition Yposition Zposition Zrotation Xrotation Yrotation
          JOINT RightArm
          {
            OFFSET -8.17784 0 0
            CHANNELS 6 Xposition Yposition Zposition Zrotation Xrotation Yrotation
            JOINT RightForeArm
            {
              OFFSET -30.104 0 0
              CHANNELS 6 Xposition Yposition Zposition Zrotation Xrotation Yrotation
              JOINT RightHand
              {
                OFFSET -24.4664 0 0
                CHANNELS 6 Xposition Yposition Zposition Zrotation Xrotation Yrotation
                End Site
                {
                  OFFSET -13.8939 0 0
                }
              }
            }
          }
        }
      }
    }
    JOINT LeftUpLeg
    {
      OFFSET 9.26261 0 0
      CHANNELS 6 Xposition Yposition Zposition Zrotation Xrotation Yrotation
      JOINT LeftLeg
      {
        OFFSET 0 -35.4897 0
        CHANNELS 6 Xposition Yposition Zposition Zrotation Xrotation Yrotation
        JOINT LeftFoot
        {
          OFFSET 0 -38.2023 0
          CHANNELS 6 Xposition Yposition Zposition Zrotation Xrotation Yrotation
          JOINT LeftToeBase
          {
            OFFSET 0 -6.0207 13.8939
            CHANNELS 6 Xposition Yposition Zposition Zrotation Xrotation Yrotation
            End Site
            {
              OFFSET 0 0 3.70504
            }
          }
        }
      }
    }
    JOINT RightUpLeg
    {
      OFFSET -9.26261 0 0
      CHANNELS 6 Xposition Yposition Zposition Zrotation Xrotation Yrotation
      JOINT RightLeg
      {
        OFFSET 0 -35.4897 0
        CHANNELS 6 Xposition Yposition Zposition Zrotation Xrotation Yrotation
        JOINT RightFoot
        {
          OFFSET 0 -38.2023 0
          CHANNELS 6 Xposition Yposition Zposition Zrotation Xrotation Yrotation
          JOINT RightToeBase
          {
            OFFSET 0 -6.0207 13.8939
            CHANNELS 6 Xposition Yposition Zposition Zrotation Xrotation Yrotation
            End Site
            {
              OFFSET 0 0 3.70504
            }
          }
        }
      }
    }
  }
}
MOTION
Frames:	8
Frame Time:	0.004
0 0 0 0 0 -0 -21.0045 75.9517 -157.556 0.353771 0.060747 -5.33363 -7.10543e-015 7.59534 0 -1.99865 -1.79886 -3.58968 0 23.5015 -2.84217e-014 2.57389 2.5586 -3.61586 0 23.405 2.12773 -3.8046 24.0071 -4.62212 1.42109e-014 12.9677 -1.85252 2.59723 2.16443 -4.77448 3.62206 22.4732 -0.132728 -13.684 13.2572 8.13843 8.17784 1.42109e-014 0 -29.1972 52.7305 -23.9672 30.104 0 1.42109e-014 16.3913 -22.876 -29.4104 24.4664 0 0 -10.6111 -18.2663 -6.38199 -3.6336 22.4732 -0.132728 6.27297 33.0167 20.0182 -8.17784 -1.42109e-014 0 38.3575 30.1856 13.2637 -30.104 0 0 -3.61851 -10.1168 20.3043 -24.4664 -7.10543e-015 0 14.4823 -8.64148 6.6527 9.26261 -1.42109e-014 0 -5.08296 17.9285 -0.365731 7.10543e-015 -35.4897 0 -2.26853 -3.61914 0.345469 0 -38.2023 0 3.3873 -6.21077 11.1639 0 -6.0207 13.8939 1.98785e-016 1.59028e-015 7.95139e-016 -9.26261 0 0 1.92178 -29.6998 2.42108 0 -35.4897 -2.84217e-014 0.133471 20.6062 -7.53881 0 -38.2023 0 4.9142 3.68736 0.577913 0 -6.0207 13.8939 -7.95139e-016 7.95139e-016 -1.59028e-015 
0 0 0 0 0 -0 -21.004 75.9175 -157.23 0.448207 0.076447 -5.1964 0 7.59534 -2.84217e-014 -2.05572 -1.84954 -3.6511 0 23.5015 0 2.54544 2.57134 -3.67515 0 23.405 2.12773 -3.76197 24.0384 -4.6295 0 12.9677 -1.85252 2.58013 2.15176 -4.78197 3.62206 22.4732 -0.132728 -13.6322 13.3089 8.0917 8.17784 0 2.84217e-014 -29.2002 52.5067 -23.9985 30.104 0 0 16.3355 -22.8072 -29.5077 24.4664 0 0 -10.4833 -18.2037 -6.36548 -3.6336 22.4732 -0.132728 6.31799 33.0405 19.9932 -8.17784 0 -2.84217e-014 38.3803 30.1301 13.2392 -30.104 -1.42109e-014 2.84217e-014 -3.62611 -10.0831 20.3363 -24.4664 1.42109e-014 0 14.7936 -8.57752 6.72702 9.26261 0 -2.84217e-014 -5.14664 18.055 -0.37186 0 -35.4897 0 -2.34166 -3.48948 0.639642 3.55271e-015 -38.2023 0 3.32596 -6.24476 10.8728 -3.55271e-015 -6.0207 13.8939 -0 -3.18055e-015 -0 -9.26261 -1.42109e-014 -2.84217e-014 1.87871 -29.5539 2.6374 0 -35.4897 0 0.0725782 19.7737 -7.55624 0 -38.2023 -1.42109e-014 4.82559 3.5047 0.549383 0 -6.0207 13.8939 2.20695e-032 -7.95139e-016 1.59028e-015 
0 0 0 0 0 -0 -21.0034 75.8762 -156.891 0.523196 0.086679 -5.05284 0 7.59534 -2.84217e-014 -2.18312 -1.85305 -3.66111 0 23.5015 0 2.74728 2.54166 -3.68688 7.10543e-015 23.405 2.12773 -3.92066 24.091 -4.69494 0 12.9677 -1.85252 2.69552 2.10372 -4.84867 3.62206 22.4732 -0.132728 -13.6991 13.3733 7.89721 8.17784 0 0 -29.2199 52.3775 -23.9359 30.104 2.84217e-014 2.84217e-014 16.3611 -22.8634 -29.5829 24.4664 0 0 -10.8383 -18.2023 -6.61833 -3.6336 22.4732 -0.132728 6.31171 33.0921 19.7886 -8.17784 2.84217e-014 0 38.366 30.1103 13.2795 -30.104 0 0 -3.59699 -10.0846 20.4029 -24.4664 -7.10543e-015 0 14.4977 -8.62219 6.54747 9.26261 -1.42109e-014 0 -5.16903 18.2016 -0.478561 -7.10543e-015 -35.4897 -2.84217e-014 -2.39952 -3.32621 0.363897 0 -38.2023 -2.84217e-014 3.31404 -6.33484 11.1487 3.55271e-015 -6.0207 13.8939 3.97569e-016 -1.59028e-015 -7.95139e-016 -9.26261 0 0 1.87823 -29.3961 2.80518 -7.10543e-015 -35.4897 -1.42109e-014 -0.0441839 18.9098 -7.55061 0 -38.2023 0 4.78737 3.29472 0.520482 0 -6.0207 13.8939 -1.39149e-015 0 -1.59028e-015 
0 0 0 0 0 -0 -21.0029 75.8376 -156.546 0.6128 0.069361 -4.93144 0 7.59534 -2.84217e-014 -2.23495 -1.87396 -3.7133 7.10543e-015 23.5015 2.84217e-014 2.71676 2.56397 -3.73765 7.10543e-015 23.405 2.12773 -3.83829 24.1362 -4.74458 0 12.9677 -1.85252 2.61838 2.05981 -4.90443 3.62206 22.4732 -0.132728 -13.6441 13.4294 7.87478 8.17784 -1.42109e-014 0 -29.0933 52.4518 -24.0862 30.104 1.42109e-014 0 16.5457 -22.96 -29.5684 24.4664 7.10543e-015 7.10543e-015 -10.7738 -18.2698 -6.51318 -3.6336 22.4732 -0.132728 6.36758 33.165 19.7755 -8.17784 1.42109e-014 2.84217e-014 38.3552 30.0662 13.269 -30.104 0 -2.84217e-014 -3.59029 -10.0835 20.4469 -24.4664 0 2.84217e-014 14.2719 -8.63624 6.52851 9.26261 0 0 -5.24389 18.3603 -0.283866 0 -35.4897 2.84217e-014 -2.41783 -3.14387 0.137341 0 -38.2023 0 3.23242 -6.38757 11.0793 -3.55271e-015 -6.0207 13.8939 1.98785e-016 0 7.95139e-016 -9.26261 -1.42109e-014 0 1.83243 -29.2093 3.05732 7.10543e-015 -35.4897 0 -0.108378 18.1156 -7.41747 -7.10543e-015 -38.2023 0 4.84668 3.07391 0.301544 0 -6.0207 13.8939 -0 -1.59028e-015 -0 
0 0 0 0 0 -0 -21.0024 75.8006 -156.187 0.700032 0.020239 -4.78481 0 7.59534 0 -2.26966 -1.94225 -3.79349 0 23.5015 0 2.66382 2.72493 -3.81848 -1.42109e-014 23.405 2.12773 -3.86062 24.0966 -4.73758 0 12.9677 -1.85252 2.65386 2.0588 -4.89288 3.62206 22.4732 -0.132728 -13.6008 13.3648 7.86334 8.17784 0 0 -29.0129 52.4173 -24.1339 30.104 0 -1.42109e-014 16.5038 -22.9559 -29.6598 24.4664 1.42109e-014 0 -10.6358 -18.267 -6.55023 -3.6336 22.4732 -0.132728 6.38864 33.1252 19.8257 -8.17784 0 2.84217e-014 38.377 30.0587 13.2468 -30.104 0 0 -3.62775 -10.0963 20.4381 -24.4664 0 0 14.6486 -8.59846 6.70603 9.26261 0 0 -5.27102 18.5745 -0.353916 0 -35.4897 2.84217e-014 -2.49822 -2.99116 0.037353 0 -38.2023 0 3.18157 -6.42315 11.1262 0 -6.0207 13.8939 -7.95139e-016 0 -7.95139e-016 -9.26261 -1.42109e-014 0 1.83503 -29.0367 3.29683 0 -35.4897 -1.42109e-014 -0.257109 17.49 -7.08716 0 -38.2023 1.42109e-014 4.85039 2.74039 -0.105164 -7.10543e-015 -6.0207 13.8939 1.98785e-016 1.59028e-015 3.18055e-015 
0 0 0 0 0 -0 -21.0019 75.7555 -155.848 0.753362 -0.039168 -4.62241 -7.10543e-015 7.59534 -2.84217e-014 -2.2942 -1.90236 -3.84635 0 23.5015 0 2.69247 2.75498 -3.87313 0 23.405 2.12773 -3.86399 24.1347 -4.78467 0 12.9677 -1.85252 2.64362 1.98764 -4.94328 3.62206 22.4732 -0.132728 -13.6186 13.3976 7.71146 8.17784 -1.42109e-014 0 -29.1827 52.08 -23.952 30.104 1.42109e-014 0 16.4483 -22.8029 -29.8025 24.4664 0 0 -10.7488 -18.0919 -6.59958 -3.6336 22.4732 -0.132728 6.43931 33.1005 19.7474 -8.17784 1.42109e-014 0 38.3704 29.9621 13.2326 -30.104 1.42109e-014 0 -3.56098 -10.0585 20.4575 -24.4664 7.10543e-015 0 14.7579 -8.56308 6.72384 9.26261 -1.42109e-014 0 -5.29985 18.7697 -0.190231 0 -35.4897 2.84217e-014 -2.52323 -2.80316 -0.133844 0 -38.2023 0 3.25993 -6.53949 10.9601 -3.55271e-015 -6.0207 13.8939 0 0 -3.18055e-015 -9.26261 -1.42109e-014 0 1.73368 -28.7795 3.43188 0 -35.4897 1.42109e-014 -0.230703 16.7366 -6.74371 0 -38.2023 0 4.77483 2.42165 -0.551061 0 -6.0207 13.8939 -1.19271e-015 -1.59028e-015 -1.59028e-015 
0 0 0 0 0 -0 -21.0015 75.7183 -155.492 0.847231 -0.057744 -4.46565 3.55271e-015 7.59534 0 -2.37153 -1.88805 -3.86151 -7.10543e-015 23.5015 -2.84217e-014 2.72902 2.70202 -3.8869 0 23.405 2.12773 -3.88104 24.2477 -4.844 0 12.9677 -1.85252 2.71868 1.89489 -4.99913 3.62206 22.4732 -0.132728 -13.597 13.4891 7.57554 8.17784 0 2.84217e-014 -29.0335 52.1772 -24.0773 30.104 1.42109e-014 0 16.5409 -22.8949 -29.8261 24.4664 -1.42109e-014 -7.10543e-015 -10.4687 -18.1912 -6.41195 -3.6336 22.4732 -0.132728 6.47607 33.1834 19.6172 -8.17784 0 0 38.4024 30.0093 13.2267 -30.104 1.42109e-014 0 -3.60176 -10.0864 20.5306 -24.4664 -1.42109e-014 -2.84217e-014 14.3535 -8.63822 6.46063 9.26261 -1.42109e-014 0 -5.34669 18.8963 -0.01706 7.10543e-015 -35.4897 0 -2.57087 -2.54598 -0.355349 0 -38.2023 0 3.08266 -6.58285 10.8995 0 -6.0207 13.8939 1.98785e-016 1.59028e-015 7.95139e-016 -9.26261 -1.42109e-014 0 1.69954 -28.6467 3.7415 7.10543e-015 -35.4897 0 -0.355196 16.1527 -6.9227 -7.10543e-015 -38.2023 0 4.84592 2.23832 -0.484866 7.10543e-015 -6.0207 13.8939 2.5842e-015 0 -1.59028e-015 
0 0 0 0 0 -0 -21.001 75.683 -155.134 0.936146 -0.082319 -4.34541 3.55271e-015 7.59534 0 -2.37408 -1.9578 -3.91001 -7.10543e-015 23.5015 0 2.63465 2.82374 -3.93449 0 23.405 2.12773 -3.83235 24.2659 -4.88475 0 12.9677 -1.85252 2.69138 1.80148 -5.03975 3.62206 22.4732 -0.132728 -13.552 13.4841 7.57294 8.17784 1.42109e-014 0 -28.8676 52.2427 -24.2169 30.104 1.42109e-014 1.42109e-014 16.6232 -22.9536 -29.8335 24.4664 0 0 -10.5853 -18.2138 -6.5168 -3.6336 22.4732 -0.132728 6.57645 33.1844 19.6002 -8.17784 0 -2.84217e-014 38.3799 29.9753 13.2325 -30.104 -2.84217e-014 0 -3.5357 -10.1459 20.5805 -24.4664 7.10543e-015 0 14.0064 -8.75352 6.24986 9.26261 0 0 -5.39957 19.0831 0.051914 -3.55271e-015 -35.4897 -2.84217e-014 -2.61524 -2.39763 -0.386292 -3.55271e-015 -38.2023 0 2.98277 -6.57813 10.7613 0 -6.0207 13.8939 5.96354e-016 -1.59028e-015 7.95139e-016 -9.26261 0 0 1.63164 -28.4273 3.81637 0 -35.4897 -2.84217e-014 -0.426288 15.4499 -6.91488 0 -38.2023 1.42109e-014 4.78764 2.04581 -0.469775 -7.10543e-015 -6.0207 13.8939 9.93923e-016 1.59028e-015 -7.95139e-016 
